<?xml version="1.0" standalone="no"?>
<!DOCTYPE svg PUBLIC "-//W3C//DTD SVG 20010904//EN"
 "http://www.w3.org/TR/2001/REC-SVG-20010904/DTD/svg10.dtd">
<svg version="1.0" xmlns="http://www.w3.org/2000/svg"
 width="607.000000pt" height="607.000000pt" viewBox="0 0 607.000000 607.000000"
 preserveAspectRatio="xMidYMid meet">
<metadata>
Created by potrace 1.11, written by Peter Selinger 2001-2013
</metadata>
<g transform="translate(0.000000,607.000000) scale(0.100000,-0.100000)"
fill="#000000" stroke="none">
<path d="M3039 5736 c-2 -2 -26 -7 -54 -10 -27 -4 -65 -9 -84 -12 -59 -10
-150 -42 -214 -77 -151 -83 -190 -104 -322 -170 -77 -39 -146 -72 -153 -73 -7
-1 -19 -7 -26 -13 -7 -6 -41 -25 -74 -42 -83 -41 -240 -194 -276 -269 -14 -31
-29 -67 -32 -80 -41 -194 -8 -356 107 -527 39 -58 225 -243 244 -243 7 0 15
-4 17 -8 3 -8 104 -72 113 -72 2 0 28 -11 57 -24 93 -42 350 -118 473 -140 17
-3 39 -7 50 -10 11 -3 61 -15 110 -26 221 -52 541 -152 671 -210 36 -17 70
-30 76 -30 13 0 295 -139 357 -175 53 -32 194 -126 201 -135 3 -3 23 -19 45
-36 104 -77 309 -282 390 -391 16 -21 32 -40 35 -43 19 -14 157 -210 213 -303
114 -186 246 -470 272 -587 1 -3 7 -23 13 -46 7 -22 16 -63 22 -90 5 -27 11
-58 13 -69 40 -193 24 -459 -36 -610 -39 -97 -137 -259 -178 -291 -12 -10
-108 -34 -194 -49 -16 -2 -40 -7 -52 -9 -12 -3 -50 -7 -84 -11 -34 -3 -76 -8
-93 -11 -37 -5 -365 -5 -416 0 -19 2 -66 7 -105 11 -38 3 -81 8 -95 11 -14 2
-45 7 -70 10 -25 3 -54 8 -65 10 -11 3 -36 7 -55 9 -19 3 -46 8 -60 11 -14 3
-36 8 -50 11 -53 9 -257 58 -262 63 -2 1 -10 3 -18 5 -63 12 -418 123 -465
145 -11 5 -40 16 -65 24 -25 8 -61 21 -80 29 -19 9 -87 37 -150 62 -63 26
-134 56 -157 66 -117 52 -147 66 -263 121 -69 33 -135 64 -148 69 -13 5 -22
14 -20 20 2 6 130 76 283 154 154 79 296 152 315 162 l35 18 -1 175 c-1 166
-10 488 -19 630 -2 36 -6 112 -10 169 -3 58 -8 131 -11 162 -3 32 -7 84 -9
116 -2 32 -7 105 -11 163 -15 198 -21 178 70 227 43 24 88 46 100 49 12 4 23
10 26 13 5 6 26 18 213 113 53 27 97 53 97 57 0 8 -29 51 -45 66 -20 20 -113
76 -133 80 -11 2 -28 8 -38 13 -47 25 -252 94 -324 109 -8 1 -58 12 -110 23
-102 22 -125 25 -268 36 -241 18 -448 -1 -687 -62 -137 -35 -172 -51 -365
-159 -41 -23 -100 -55 -130 -72 -73 -40 -155 -85 -210 -117 -25 -15 -61 -34
-80 -44 -19 -9 -41 -23 -48 -29 -7 -7 -24 -16 -38 -19 -13 -3 -24 -10 -24 -15
0 -5 -5 -9 -11 -9 -6 0 -54 -26 -107 -57 -54 -32 -101 -60 -107 -62 -32 -13
-130 -95 -195 -161 -131 -135 -212 -303 -248 -515 -11 -66 -7 -286 6 -350 8
-33 15 -67 16 -75 2 -8 5 -22 8 -30 3 -8 16 -44 28 -80 12 -36 26 -69 31 -75
5 -5 9 -17 9 -26 0 -9 7 -22 15 -29 9 -7 13 -15 10 -18 -3 -3 6 -20 20 -38 14
-18 25 -35 25 -39 0 -3 4 -11 10 -18 5 -7 33 -43 62 -82 82 -111 261 -284 398
-385 18 -14 45 -34 59 -46 14 -12 31 -23 36 -25 6 -2 56 -34 112 -72 57 -37
117 -76 135 -86 18 -10 89 -51 158 -91 139 -81 545 -282 715 -355 146 -63 159
-68 235 -98 108 -43 125 -50 135 -53 6 -1 42 -14 80 -29 39 -15 93 -34 120
-42 28 -8 59 -19 70 -24 19 -8 143 -46 175 -54 8 -2 47 -13 85 -25 39 -11 83
-23 99 -26 15 -2 60 -13 100 -24 63 -17 97 -24 211 -45 87 -16 145 -26 194
-31 30 -3 64 -8 75 -10 95 -19 481 -26 631 -11 104 10 125 13 215 32 14 2 36
6 50 9 36 6 144 34 219 57 50 15 244 111 321 159 8 5 152 86 320 179 168 94
310 175 317 181 7 5 15 10 19 10 15 0 133 91 190 146 137 134 236 290 288 453
15 46 28 93 31 105 2 11 4 21 5 21 1 0 4 20 7 45 14 99 5 432 -12 460 -2 3 -6
23 -9 45 -12 72 -69 270 -95 330 -5 11 -24 56 -42 100 -40 97 -115 243 -171
333 -22 37 -46 76 -52 87 -28 49 -88 133 -200 280 -81 105 -258 294 -356 380
-61 53 -209 165 -219 165 -5 0 -11 4 -13 9 -10 27 -340 203 -488 261 -30 12
-68 27 -85 34 -72 31 -95 40 -185 71 -142 48 -379 119 -435 129 -5 1 -19 5
-30 9 -11 3 -31 8 -45 11 -14 3 -50 10 -80 16 -30 6 -66 14 -80 16 -66 13
-235 57 -320 84 -205 65 -366 172 -477 320 -72 95 -103 184 -108 302 l-2 57
131 -3 c117 -4 172 -8 256 -22 14 -2 45 -7 70 -10 25 -3 53 -10 63 -15 9 -6
17 -8 17 -5 0 6 248 -60 302 -80 74 -28 172 -77 204 -101 17 -13 35 -23 39
-23 4 0 23 -11 41 -25 18 -14 35 -25 38 -25 3 0 14 -8 24 -17 49 -48 137 -118
144 -115 5 1 26 13 46 26 20 13 41 23 46 24 5 0 12 4 15 9 5 7 265 164 326
197 11 6 28 17 37 24 9 8 34 23 56 35 100 56 192 113 192 119 0 13 -96 103
-161 152 -161 122 -382 230 -532 261 -10 2 -27 7 -37 10 -10 3 -27 7 -37 9
-10 2 -45 11 -78 19 -59 15 -146 29 -279 46 -67 8 -430 14 -437 7z m-1348
-2190 c94 -9 163 -20 259 -42 36 -9 73 -17 83 -19 38 -8 157 -49 157 -54 0 -4
-70 -42 -155 -86 l-156 -80 7 -80 c8 -110 13 -160 14 -160 1 0 5 -50 14 -170
3 -44 8 -107 11 -140 17 -225 33 -513 39 -690 4 -108 8 -402 7 -432 -1 -7 -39
10 -87 37 -47 28 -87 50 -89 50 -5 0 -270 162 -275 169 -3 3 -17 12 -32 20
-16 8 -28 18 -28 23 0 4 -5 8 -11 8 -6 0 -38 21 -72 47 -135 104 -182 145
-272 238 -109 112 -125 131 -125 144 0 6 -3 11 -7 11 -5 0 -21 21 -38 48 -16
26 -32 49 -36 52 -11 8 -71 141 -89 200 -33 102 -44 175 -43 300 1 102 5 143
27 225 15 54 32 105 38 112 6 7 7 13 4 13 -8 0 32 72 78 143 28 42 43 55 68
57 4 1 29 7 55 15 58 17 243 44 296 43 21 0 41 2 44 5 6 6 224 1 314 -7z"/>
</g>
</svg>
