<?xml version="1.0" encoding="UTF-8" standalone="no"?>
<!-- Created with Inkscape (http://www.inkscape.org/) -->

<svg
   xmlns:dc="http://purl.org/dc/elements/1.1/"
   xmlns:cc="http://creativecommons.org/ns#"
   xmlns:rdf="http://www.w3.org/1999/02/22-rdf-syntax-ns#"
   xmlns:svg="http://www.w3.org/2000/svg"
   xmlns="http://www.w3.org/2000/svg"
   xmlns:sodipodi="http://sodipodi.sourceforge.net/DTD/sodipodi-0.dtd"
   xmlns:inkscape="http://www.inkscape.org/namespaces/inkscape"
   width="606.72961"
   height="541.36298"
   viewBox="0 0 160.53054 143.23562"
   version="1.1"
   id="svg8"
   inkscape:version="0.92.3 (unknown)"
   sodipodi:docname="logo.svg">
  <defs
     id="defs2">
    <inkscape:path-effect
       effect="skeletal"
       id="path-effect4648"
       is_visible="true"
       pattern="M 0,5 C 0,2.24 2.24,0 5,0 7.76,0 10,2.24 10,5 10,7.76 7.76,10 5,10 2.24,10 0,7.76 0,5 Z"
       copytype="single_stretched"
       prop_scale="0.26458333"
       scale_y_rel="false"
       spacing="0"
       normal_offset="0"
       tang_offset="0"
       prop_units="false"
       vertical_pattern="false"
       fuse_tolerance="0" />
    <inkscape:path-effect
       effect="simplify"
       id="path-effect4646"
       is_visible="true"
       steps="1"
       threshold="0.0757143"
       smooth_angles="360"
       helper_size="0"
       simplify_individual_paths="false"
       simplify_just_coalesce="false"
       simplifyindividualpaths="false"
       simplifyJustCoalesce="false" />
    <inkscape:path-effect
       effect="skeletal"
       id="path-effect4642"
       is_visible="true"
       pattern="M 0,5 C 0,2.24 2.24,0 5,0 7.76,0 10,2.24 10,5 10,7.76 7.76,10 5,10 2.24,10 0,7.76 0,5 Z"
       copytype="single_stretched"
       prop_scale="0.26458333"
       scale_y_rel="false"
       spacing="0"
       normal_offset="0"
       tang_offset="0"
       prop_units="false"
       vertical_pattern="false"
       fuse_tolerance="0" />
    <inkscape:path-effect
       effect="simplify"
       id="path-effect4640"
       is_visible="true"
       steps="1"
       threshold="0.0757143"
       smooth_angles="360"
       helper_size="0"
       simplify_individual_paths="false"
       simplify_just_coalesce="false"
       simplifyindividualpaths="false"
       simplifyJustCoalesce="false" />
    <inkscape:path-effect
       effect="skeletal"
       id="path-effect4636"
       is_visible="true"
       pattern="M 0,5 C 0,2.24 2.24,0 5,0 7.76,0 10,2.24 10,5 10,7.76 7.76,10 5,10 2.24,10 0,7.76 0,5 Z"
       copytype="single_stretched"
       prop_scale="0.26458333"
       scale_y_rel="false"
       spacing="0"
       normal_offset="0"
       tang_offset="0"
       prop_units="false"
       vertical_pattern="false"
       fuse_tolerance="0" />
    <inkscape:path-effect
       effect="simplify"
       id="path-effect4634"
       is_visible="true"
       steps="1"
       threshold="0.5"
       smooth_angles="360"
       helper_size="0"
       simplify_individual_paths="false"
       simplify_just_coalesce="false"
       simplifyindividualpaths="false"
       simplifyJustCoalesce="false" />
    <inkscape:path-effect
       effect="skeletal"
       id="path-effect4630"
       is_visible="true"
       pattern="M 0,5 C 0,2.24 2.24,0 5,0 7.76,0 10,2.24 10,5 10,7.76 7.76,10 5,10 2.24,10 0,7.76 0,5 Z"
       copytype="single_stretched"
       prop_scale="0.26458333"
       scale_y_rel="false"
       spacing="0"
       normal_offset="0"
       tang_offset="0"
       prop_units="false"
       vertical_pattern="false"
       fuse_tolerance="0" />
    <inkscape:path-effect
       effect="simplify"
       id="path-effect4628"
       is_visible="true"
       steps="1"
       threshold="0.5"
       smooth_angles="360"
       helper_size="0"
       simplify_individual_paths="false"
       simplify_just_coalesce="false"
       simplifyindividualpaths="false"
       simplifyJustCoalesce="false" />
  </defs>
  <sodipodi:namedview
     id="base"
     pagecolor="#ffffff"
     bordercolor="#666666"
     borderopacity="1.0"
     inkscape:pageopacity="0.0"
     inkscape:pageshadow="2"
     inkscape:zoom="0.35"
     inkscape:cx="346.7634"
     inkscape:cy="652.0006"
     inkscape:document-units="px"
     inkscape:current-layer="layer1"
     showgrid="false"
     units="px"
     showborder="false"
     inkscape:snap-text-baseline="true"
     showguides="false"
     fit-margin-top="0"
     fit-margin-left="0"
     fit-margin-right="0"
     fit-margin-bottom="0"
     inkscape:window-width="1920"
     inkscape:window-height="1056"
     inkscape:window-x="0"
     inkscape:window-y="24"
     inkscape:window-maximized="1" />
  <metadata
     id="metadata5">
    <rdf:RDF>
      <cc:Work
         rdf:about="">
        <dc:format>image/svg+xml</dc:format>
        <dc:type
           rdf:resource="http://purl.org/dc/dcmitype/StillImage" />
        <dc:title></dc:title>
      </cc:Work>
    </rdf:RDF>
  </metadata>
  <g
     inkscape:label="Layer 1"
     inkscape:groupmode="layer"
     id="layer1"
     transform="translate(73.982937,-264.28476)">
    <path
       style="opacity:1;fill:#ffffff;fill-opacity:1;stroke:none;stroke-width:0.02645833;stroke-miterlimit:4;stroke-dasharray:none"
       id="path4924"
       d="m 28.379801,289.4431 c -2.202168,-2.58693 -5.006587,-4.35723 -7.891658,-6.07192 -4.294539,-2.58479 -9.177902,-3.68906 -14.0214105,-4.71816 -5.4299926,-1.11611 -10.9460097,-1.27693 -16.4573975,-0.90326 -2.414962,0.26094 -4.831971,0.5991 -7.10963,1.48651 -0.672836,0.26215 -2.589644,1.27445 -1.964433,0.91316 20.1500949,-11.64453 23.0658,-13.76061 16.0860608,-8.87812 -3.4262277,3.13698 -3.874812,6.01808 -3.2188899,10.44855 1.148048,4.44934 4.1246664,7.55873 7.6907434,10.25676 4.5913958,3.21977 10.0741967,4.38124 15.4358877,5.62798 6.731735,1.20515 13.257085,3.1523 19.704621,5.39573 4.922467,1.94828 9.879848,3.87006 14.484741,6.50991 3.140125,1.80015 4.043799,2.54011 7.004381,4.62524 6.915533,5.27468 12.432892,11.94117 17.338973,19.05637 3.691687,5.82012 6.965194,11.99277 8.954527,18.62013 0.369461,1.23084 0.646028,2.48769 0.969042,3.73153 1.308592,5.91031 1.730599,12.05627 0.109087,17.95491 -0.303286,1.10326 -0.738973,2.1658 -1.108461,3.24869 -2.543985,5.80684 -6.72419,10.85638 -12.264086,14.04922 -7.767087,4.47643 -15.643857,8.75979 -23.465787,13.13971 -9.465942,3.35158 -19.592512,4.18274 -29.553459,3.19524 -2.55949,-0.25374 -5.09686,-0.69535 -7.645289,-1.04302 -15.0681814,-2.66845 -29.479817,-8.08373 -43.248863,-14.66127 -2.765679,-1.32117 -5.475971,-2.75532 -8.213953,-4.13295 -9.961099,-5.52839 -20.273584,-11.52684 -27.386994,-20.68447 -0.994137,-1.27984 -1.807131,-2.69062 -2.710696,-4.03593 -3.362158,-6.08933 -4.684821,-12.8711 -3.390667,-19.74061 0.224838,-1.19346 0.599533,-2.35373 0.899298,-3.53063 1.167476,-2.86877 1.40571,-3.93263 3.230927,-6.48433 2.286728,-3.1969 5.442098,-5.7917 8.837859,-7.73424 7.739594,-4.42746 15.571353,-8.69183 23.35703,-13.03774 5.815644,-2.16538 11.974718,-3.29499 18.181177,-3.37757 3.488541,-0.0464 5.410773,0.23397 8.848148,0.56915 5.69705,0.81489 11.2095848,2.4983 16.4637575,4.81216 1.2570854,0.71959 2.5991057,1.46624 3.4519403,2.6765 0.3233852,0.67839 0.2050397,0.36348 0.3849212,0.93292 0,0 -20.1165005,10.47112 -20.1165005,10.47112 v 0 c 0.1695897,0.0196 0.067375,-0.0122 0.2485625,0.20328 -0.85016,-0.71541 -1.823953,-1.25944 -2.839747,-1.70569 -5.130501,-2.12624 -10.522794,-3.59502 -16.05099,-4.21388 -3.561678,-0.24805 -5.027604,-0.45289 -8.636912,-0.27816 -6.083777,0.29456 -12.079433,1.61581 -17.669415,4.04471 5.17443,-3.09803 10.361766,-6.17461 15.523287,-9.2941 1.162846,-0.70278 -2.387069,1.30403 -3.526798,2.04372 -2.087915,1.35509 -4.054475,2.88264 -5.68855,4.77645 -1.944798,2.2539 -2.221635,3.23376 -3.515378,5.86168 -0.342289,1.08887 -0.758198,2.15728 -1.026867,3.2666 -1.528871,6.31269 -0.520909,12.5952 2.595764,18.263 0.85204,1.25881 1.615696,2.5822 2.556123,3.77642 7.002476,8.89225 17.203518,14.58579 26.926212,19.95424 2.721074,1.35208 5.414491,2.76127 8.163221,4.0562 13.64559391,6.42837 27.932269,11.68831 42.869133,14.10718 2.513076,0.29814 5.016233,0.6971 7.53923,0.89437 9.796352,0.76592 19.758459,-0.30866 28.870648,-4.09604 -5.1328,3.07396 -10.276948,6.12905 -15.398406,9.22187 -1.164849,0.70345 2.402613,-1.28887 3.528232,-2.05354 1.060215,-0.72022 2.060025,-1.53186 3.012411,-2.38961 2.600243,-2.34188 4.745474,-5.12225 6.299012,-8.25624 0.409488,-0.9983 0.883944,-1.97234 1.228468,-2.99487 1.858563,-5.51609 1.574681,-11.35793 0.388687,-16.97966 -0.295418,-1.19333 -0.543997,-2.39922 -0.886254,-3.57995 -1.868077,-6.44454 -5.06435,-12.4274 -8.64026,-18.06834 -4.769445,-6.88637 -10.136351,-13.34074 -16.913852,-18.36243 -2.936642,-2.0121 -3.733609,-2.66242 -6.846972,-4.38179 -4.558805,-2.51767 -9.440855,-4.38089 -14.296953,-6.22813 -6.417214,-2.16445 -12.9295383,-3.92679 -19.5823872,-5.21711 -5.6233279,-1.38073 -11.2795268,-2.87999 -15.9758138,-6.44628 -3.894766,-3.17815 -7.113769,-6.74238 -8.521095,-11.69003 -0.96808,-4.88104 -0.866874,-8.48577 2.210232,-12.61425 7.285452,-7.00672 2.036893,-2.19171 22.7781077,-13.61496 0.85587834,-0.47135 3.5069271,-1.06034 4.4171942,-1.22645 1.9879005,-0.36279 3.0793882,-0.4055 5.1084252,-0.57883 5.6458359,-0.17451 11.2828599,0.13163 16.8090689,1.39597 5.027648,1.15713 10.02227,2.5559 14.433318,5.3331 3.055012,1.88132 5.96695,3.93444 8.289658,6.71058 0,0 -19.443292,11.6737 -19.443292,11.6737 z"
       inkscape:connector-curvature="0" />
    <path
       style="opacity:1;fill:#ffffff;fill-opacity:1;stroke:none;stroke-width:0.02645833;stroke-miterlimit:4;stroke-dasharray:none"
       id="path4926"
       d="m -4.2091117,319.40851 c 0.9382371,9.17994 1.5993459,18.38193 2.10177,27.59517 0.3541311,6.70783 0.485447,13.42118 0.5555761,20.13659 0,0 -20.1976974,10.31362 -20.1976974,10.31362 v 0 c -0.04764,-6.68546 -0.16788,-13.36826 -0.509368,-20.04661 -0.481582,-9.19768 -1.108078,-18.38756 -2.077398,-27.54809 0,0 20.1271173,-10.45068 20.1271173,-10.45068 z"
       inkscape:connector-curvature="0" />
  </g>
</svg>
