<?xml version="1.0" encoding="UTF-8" standalone="no"?>
<!-- Created with Inkscape (http://www.inkscape.org/) -->

<svg
   xmlns:dc="http://purl.org/dc/elements/1.1/"
   xmlns:cc="http://creativecommons.org/ns#"
   xmlns:rdf="http://www.w3.org/1999/02/22-rdf-syntax-ns#"
   xmlns:svg="http://www.w3.org/2000/svg"
   xmlns="http://www.w3.org/2000/svg"
   xmlns:sodipodi="http://sodipodi.sourceforge.net/DTD/sodipodi-0.dtd"
   xmlns:inkscape="http://www.inkscape.org/namespaces/inkscape"
   width="2264.3772"
   height="2155.052"
   viewBox="0 0 599.11645 570.19086"
   version="1.1"
   id="svg8"
   inkscape:version="0.92.3 (unknown)"
   sodipodi:docname="white-flamingo.svg">
  <defs
     id="defs2">
    <inkscape:path-effect
       effect="skeletal"
       id="path-effect1003"
       is_visible="true"
       pattern="M 0,5 C 0,2.24 2.24,0 5,0 7.76,0 10,2.24 10,5 10,7.76 7.76,10 5,10 2.24,10 0,7.76 0,5 Z"
       copytype="single_stretched"
       prop_scale="-1.6031647"
       scale_y_rel="false"
       spacing="0"
       normal_offset="0"
       tang_offset="0"
       prop_units="false"
       vertical_pattern="false"
       fuse_tolerance="0" />
    <inkscape:path-effect
       effect="simplify"
       id="path-effect1001"
       is_visible="true"
       steps="1"
       threshold="0.00537302"
       smooth_angles="360"
       helper_size="0"
       simplify_individual_paths="false"
       simplify_just_coalesce="false"
       simplifyindividualpaths="false"
       simplifyJustCoalesce="false" />
    <inkscape:path-effect
       effect="skeletal"
       id="path-effect997"
       is_visible="true"
       pattern="M 0,5 C 0,2.24 2.24,0 5,0 7.76,0 10,2.24 10,5 10,7.76 7.76,10 5,10 2.24,10 0,7.76 0,5 Z"
       copytype="single_stretched"
       prop_scale="0.26458333"
       scale_y_rel="false"
       spacing="0"
       normal_offset="0"
       tang_offset="0"
       prop_units="false"
       vertical_pattern="false"
       fuse_tolerance="0" />
    <inkscape:path-effect
       effect="simplify"
       id="path-effect995"
       is_visible="true"
       steps="1"
       threshold="0.00537302"
       smooth_angles="360"
       helper_size="0"
       simplify_individual_paths="false"
       simplify_just_coalesce="false"
       simplifyindividualpaths="false"
       simplifyJustCoalesce="false" />
    <inkscape:path-effect
       effect="skeletal"
       id="path-effect991"
       is_visible="true"
       pattern="M 0,5 C 0,2.24 2.24,0 5,0 7.76,0 10,2.24 10,5 10,7.76 7.76,10 5,10 2.24,10 0,7.76 0,5 Z"
       copytype="single_stretched"
       prop_scale="-0.6916549"
       scale_y_rel="false"
       spacing="0"
       normal_offset="0"
       tang_offset="0"
       prop_units="false"
       vertical_pattern="false"
       fuse_tolerance="0" />
    <inkscape:path-effect
       effect="simplify"
       id="path-effect989"
       is_visible="true"
       steps="1"
       threshold="0.00537302"
       smooth_angles="360"
       helper_size="0"
       simplify_individual_paths="false"
       simplify_just_coalesce="false"
       simplifyindividualpaths="false"
       simplifyJustCoalesce="false" />
    <inkscape:path-effect
       effect="skeletal"
       id="path-effect961"
       is_visible="true"
       pattern="M 0,5 C 0,2.24 2.24,0 5,0 7.76,0 10,2.24 10,5 10,7.76 7.76,10 5,10 2.24,10 0,7.76 0,5 Z"
       copytype="single_stretched"
       prop_scale="-0.68683027"
       scale_y_rel="false"
       spacing="0"
       normal_offset="0"
       tang_offset="0"
       prop_units="false"
       vertical_pattern="false"
       fuse_tolerance="0" />
    <inkscape:path-effect
       effect="simplify"
       id="path-effect959"
       is_visible="true"
       steps="1"
       threshold="0.00537302"
       smooth_angles="360"
       helper_size="0"
       simplify_individual_paths="false"
       simplify_just_coalesce="false"
       simplifyindividualpaths="false"
       simplifyJustCoalesce="false" />
    <inkscape:path-effect
       effect="skeletal"
       id="path-effect955"
       is_visible="true"
       pattern="M 0,5 C 0,2.24 2.24,0 5,0 7.76,0 10,2.24 10,5 10,7.76 7.76,10 5,10 2.24,10 0,7.76 0,5 Z"
       copytype="single_stretched"
       prop_scale="1.1597757"
       scale_y_rel="false"
       spacing="0"
       normal_offset="0"
       tang_offset="0"
       prop_units="false"
       vertical_pattern="false"
       fuse_tolerance="0" />
    <inkscape:path-effect
       effect="simplify"
       id="path-effect953"
       is_visible="true"
       steps="1"
       threshold="0.00537302"
       smooth_angles="360"
       helper_size="0"
       simplify_individual_paths="false"
       simplify_just_coalesce="false"
       simplifyindividualpaths="false"
       simplifyJustCoalesce="false" />
    <inkscape:path-effect
       effect="skeletal"
       id="path-effect949"
       is_visible="true"
       pattern="M 0,5 C 0,2.24 2.24,0 5,0 7.76,0 10,2.24 10,5 10,7.76 7.76,10 5,10 2.24,10 0,7.76 0,5 Z"
       copytype="single_stretched"
       prop_scale="-1.5949671"
       scale_y_rel="false"
       spacing="0"
       normal_offset="0"
       tang_offset="0"
       prop_units="false"
       vertical_pattern="false"
       fuse_tolerance="0" />
    <inkscape:path-effect
       effect="simplify"
       id="path-effect947"
       is_visible="true"
       steps="1"
       threshold="0.00537302"
       smooth_angles="360"
       helper_size="0"
       simplify_individual_paths="false"
       simplify_just_coalesce="false"
       simplifyindividualpaths="false"
       simplifyJustCoalesce="false" />
    <inkscape:path-effect
       effect="skeletal"
       id="path-effect943"
       is_visible="true"
       pattern="M 0,5 C 0,2.24 2.24,0 5,0 7.76,0 10,2.24 10,5 10,7.76 7.76,10 5,10 2.24,10 0,7.76 0,5 Z"
       copytype="single_stretched"
       prop_scale="-2.203165"
       scale_y_rel="false"
       spacing="0"
       normal_offset="0"
       tang_offset="0"
       prop_units="false"
       vertical_pattern="false"
       fuse_tolerance="0" />
    <inkscape:path-effect
       effect="simplify"
       id="path-effect941"
       is_visible="true"
       steps="1"
       threshold="0.00537302"
       smooth_angles="360"
       helper_size="0"
       simplify_individual_paths="false"
       simplify_just_coalesce="false"
       simplifyindividualpaths="false"
       simplifyJustCoalesce="false" />
    <inkscape:path-effect
       effect="skeletal"
       id="path-effect937"
       is_visible="true"
       pattern="M 0,5 C 0,2.24 2.24,0 5,0 7.76,0 10,2.24 10,5 10,7.76 7.76,10 5,10 2.24,10 0,7.76 0,5 Z"
       copytype="single_stretched"
       prop_scale="2.1671256"
       scale_y_rel="false"
       spacing="0"
       normal_offset="0"
       tang_offset="0"
       prop_units="false"
       vertical_pattern="false"
       fuse_tolerance="0" />
    <inkscape:path-effect
       effect="simplify"
       id="path-effect935"
       is_visible="true"
       steps="1"
       threshold="0.00537302"
       smooth_angles="360"
       helper_size="0"
       simplify_individual_paths="false"
       simplify_just_coalesce="false"
       simplifyindividualpaths="false"
       simplifyJustCoalesce="false" />
    <inkscape:path-effect
       effect="skeletal"
       id="path-effect931"
       is_visible="true"
       pattern="M 0,5 C 0,2.24 2.24,0 5,0 7.76,0 10,2.24 10,5 10,7.76 7.76,10 5,10 2.24,10 0,7.76 0,5 Z"
       copytype="single_stretched"
       prop_scale="0.26458333"
       scale_y_rel="false"
       spacing="0"
       normal_offset="0"
       tang_offset="0"
       prop_units="false"
       vertical_pattern="false"
       fuse_tolerance="0" />
    <inkscape:path-effect
       effect="simplify"
       id="path-effect929"
       is_visible="true"
       steps="1"
       threshold="0.00537302"
       smooth_angles="360"
       helper_size="0"
       simplify_individual_paths="false"
       simplify_just_coalesce="false"
       simplifyindividualpaths="false"
       simplifyJustCoalesce="false" />
    <inkscape:path-effect
       effect="skeletal"
       id="path-effect925"
       is_visible="true"
       pattern="M 0,5 C 0,2.24 2.24,0 5,0 7.76,0 10,2.24 10,5 10,7.76 7.76,10 5,10 2.24,10 0,7.76 0,5 Z"
       copytype="single_stretched"
       prop_scale="0.26458333"
       scale_y_rel="false"
       spacing="0"
       normal_offset="0"
       tang_offset="0"
       prop_units="false"
       vertical_pattern="false"
       fuse_tolerance="0" />
    <inkscape:path-effect
       effect="simplify"
       id="path-effect923"
       is_visible="true"
       steps="1"
       threshold="0.00537302"
       smooth_angles="360"
       helper_size="0"
       simplify_individual_paths="false"
       simplify_just_coalesce="false"
       simplifyindividualpaths="false"
       simplifyJustCoalesce="false" />
    <inkscape:path-effect
       effect="skeletal"
       id="path-effect919"
       is_visible="true"
       pattern="M 0,5 C 0,2.24 2.24,0 5,0 7.76,0 10,2.24 10,5 10,7.76 7.76,10 5,10 2.24,10 0,7.76 0,5 Z"
       copytype="single_stretched"
       prop_scale="0.26458333"
       scale_y_rel="false"
       spacing="0"
       normal_offset="0"
       tang_offset="0"
       prop_units="false"
       vertical_pattern="false"
       fuse_tolerance="0" />
    <inkscape:path-effect
       effect="simplify"
       id="path-effect917"
       is_visible="true"
       steps="1"
       threshold="0.00537302"
       smooth_angles="360"
       helper_size="0"
       simplify_individual_paths="false"
       simplify_just_coalesce="false"
       simplifyindividualpaths="false"
       simplifyJustCoalesce="false" />
  </defs>
  <sodipodi:namedview
     id="base"
     pagecolor="#ffffff"
     bordercolor="#666666"
     borderopacity="1.0"
     inkscape:pageopacity="0.0"
     inkscape:pageshadow="2"
     inkscape:zoom="0.35"
     inkscape:cx="1210.9453"
     inkscape:cy="1204.2264"
     inkscape:document-units="px"
     inkscape:current-layer="layer1"
     showgrid="false"
     units="px"
     showborder="false"
     inkscape:snap-others="false"
     inkscape:snap-nodes="false"
     fit-margin-top="0"
     fit-margin-left="0"
     fit-margin-right="0"
     fit-margin-bottom="0"
     inkscape:window-width="1920"
     inkscape:window-height="1056"
     inkscape:window-x="0"
     inkscape:window-y="24"
     inkscape:window-maximized="1" />
  <metadata
     id="metadata5">
    <rdf:RDF>
      <cc:Work
         rdf:about="">
        <dc:format>image/svg+xml</dc:format>
        <dc:type
           rdf:resource="http://purl.org/dc/dcmitype/StillImage" />
        <dc:title></dc:title>
      </cc:Work>
    </rdf:RDF>
  </metadata>
  <g
     inkscape:label="Layer 1"
     inkscape:groupmode="layer"
     id="layer1"
     transform="translate(279.95249,209.62572)">
    <path
       style="fill:#ffffff;stroke:none;stroke-width:0.26458332px;stroke-linecap:butt;stroke-linejoin:miter;stroke-opacity:1"
       d="m -279.70239,20.32142 c -0.88328,-0.744677 0.62895,-4.099933 3.6534,-9.899689 1.90315,-3.649523 8.653,-16.3626752 13.76767,-24.870211 0,0 10e-6,-8e-6 10e-6,-8e-6 5.42449,-9.11556 13.62935,-21.462149 25.63102,-31.544431 14.16563,-11.827175 31.25613,-24.357485 51.12744,-36.083015 0,10e-7 2e-5,-8e-6 2e-5,-8e-6 23.32217,-13.678204 50.86977,-22.803708 81.22346,-26.383468 2.85384,-0.33657 5.698411,-0.61993 8.530432,-0.85251 10.326742,-0.87515 20.420806,-1.83706 31.07801,-1.95285 11.026427,-0.15304 22.047789,0.8474 32.780569,3.79168 18.217672,5.15493 37.4032353,13.503452 51.248269,18.917905 25.197502,9.627916 42.527056,23.951449 53.108727,38.229421 13.798754,18.829356 16.911079,32.000291 15.24384,32.849568 -1.929415,0.982828 -8.939662,-9.892697 -24.19296,-25.232184 -11.13814,-11.217352 -27.028524,-21.507756 -50.132971,-28.872931 -16.0361135,-5.052661 -32.802049,-11.667417 -50.533677,-15.98571 -8.306959,-2.085497 -17.369258,-2.577027 -27.145207,-2.362855 -9.513264,0.24058 -19.01382,1.277325 -29.605022,2.195263 -2.598214,0.232891 -5.205212,0.505055 -7.81773,0.818632 -27.79114,3.335733 -52.69001,10.917589 -73.89698,22.365321 0,0 -1e-5,9e-6 -1e-5,9e-6 -19.33606,10.397853 -36.4194,21.403807 -51.00013,31.619884 -10.30914,7.039217 -19.20554,17.698546 -25.62015,25.50402 0,2.5e-6 0,5e-6 0,7.5e-6 -8.41716,10.345211 -12.79014,16.0180555 -18.56485,21.7279565 -4.82552,4.77136 -8.03098,6.738674 -8.88318,6.020203 z"
       id="path933"
       inkscape:connector-curvature="0"
       inkscape:path-effect="#path-effect935;#path-effect937"
       inkscape:original-d="m -279.70239,20.32142 c 13.75423,-15.9208063 22.66009,-35.511268 37.79763,-50.648808 9.37833,-9.378333 20.66639,-17.137269 31.75,-24.190478 15.36641,-9.778627 31.20438,-21.36386 48.38095,-27.970236 37.76809,-14.526189 77.139376,-19.710428 117.17262,-16.630952 15.281171,1.175475 30.903556,8.789279 45.35714238,13.607143 15.63959662,5.213199 35.57608262,12.236317 49.13690462,21.922618 15.282841,10.916316 30.542031,31.601917 37.797618,46.113094" />
    <path
       style="fill:#ffffff;stroke:none;stroke-width:0.26458332px;stroke-linecap:butt;stroke-linejoin:miter;stroke-opacity:1"
       d="m -250.22024,-1.6011989 c -1.3323,0.63932812 -0.14545,10.374255 11.74527,22.9279949 5.33464,5.66537 11.32813,10.598244 19.20242,16.629273 9.38836,7.235944 26.75697,21.297054 41.41223,31.011345 11.09475,7.223336 23.3452,12.185124 36.53809,16.28399 11.81941,3.741833 23.90625,6.783995 35.31594,11.033602 15.270614,5.352164 30.994897,6.281954 46.543487,5.442244 3.655023,-0.1974 7.242596,-0.48842 10.732273,-0.82496 C -26.711141,99.079442 -5.9902982,95.281144 13.400432,88.892028 35.716292,81.565591 54.529339,70.939266 69.424059,58.083614 77.431443,51.107855 83.98965,45.905542 90.908822,38.686418 99.21447,30.094935 104.60699,21.080382 107.45489,12.340745 c 2.85316,-9.1612673 3.48341,-17.810411 3.55831,-22.426148 0.0835,-5.146186 -0.4389,-7.963655 -1.40011,-8.146752 -1.01144,-0.192666 -2.42242,2.279078 -4.3151,7.006576 -1.33974,3.3463725 -4.70475,13.0205093 -8.076198,19.3974298 C 93.800856,14.798562 88.499463,21.117062 80.632276,27.831465 74.453634,33.061707 66.809996,38.144878 58.415511,44.42519 44.574119,54.728887 27.554846,63.002885 7.1885081,69.014451 -10.592096,74.241288 -29.687652,77.290997 -50.522004,78.96822 c -3.368373,0.223684 -6.757454,0.443941 -10.099313,0.612578 -14.248941,0.71903 -27.0065,0.443685 -38.106133,-3.63943 -12.52845,-4.322039 -26.04404,-7.4149 -36.80327,-10.34006 -12.55649,-3.489822 -23.25391,-7.020623 -32.59098,-12.408958 -16.30532,-9.303477 -30.61707,-19.250366 -43.36291,-26.769781 -8.80663,-5.206942 -14.24217,-8.344219 -20.25512,-12.689263 -6.2691,-4.5546977 -10.05345,-8.1703075 -13.12907,-11.2265018 -2.86637,-2.84825961 -4.48553,-4.5235226 -5.35144,-4.1080031 z"
       id="path939"
       inkscape:connector-curvature="0"
       inkscape:path-effect="#path-effect941;#path-effect943"
       inkscape:original-d="m -250.22024,-1.6011989 c 6.79119,17.8958989 44.26508,39.8413959 60.47619,50.6488099 8.25999,5.506656 15.75882,12.454763 24.94643,16.630951 14.02608,6.375488 29.74281,10.310808 44.60119,14.363094 11.49068,3.133821 21.934163,8.820407 34.017859,9.827382 C -36.801239,93.983817 26.721633,81.04054 65.767857,49.803563 76.113486,41.527057 89.100005,33.326173 96.761905,21.833325 102.07141,13.86907 104.45617,3.2862326 107.34524,-5.3809608 c 1.43716,-4.3114883 0.0927,-8.5009112 2.26785,-12.8511902" />
    <path
       style="fill:#ffffff;stroke:none;stroke-width:0.26458332px;stroke-linecap:butt;stroke-linejoin:miter;stroke-opacity:1"
       d="m 92.982141,-15.964294 c 0.329262,0.487324 1.927282,0.360536 4.331497,-1.243648 2.401763,-1.602548 5.447682,-4.653359 7.874242,-9.540509 2.61674,-5.136092 3.3754,-8.348962 5.83493,-14.526003 2.9137,-7.382958 7.12007,-18.497703 11.60527,-27.865044 0,10e-7 1e-5,-8e-6 1e-5,-8e-6 9.7851,-20.427171 23.30419,-47.622994 41.31741,-70.494464 4.89086,-6.20996 9.98049,-11.95608 15.32316,-17.25756 15.65423,-15.46104 27.77376,-26.87456 42.77407,-34.32225 0,0 1e-5,0 1e-5,0 12.17972,-6.21773 25.17901,-8.36645 34.75967,-9.21807 0,0 0,0 0,0 4.50942,-0.34676 7.93201,-1.10102 10.79736,-1.31276 4.52749,-0.22381 6.78327,0.20938 8.91606,1.24985 1.25441,0.44177 1.85431,1.57805 2.43059,1.59 -0.011,-2.3e-4 2.05378,-1.3072 -0.19775,-4.10186 -1.71431,-2.28281 -5.31528,-4.83607 -10.81015,-5.53995 -3.4816,-0.52782 -7.40857,-0.48323 -11.1573,-0.81038 0,0 -1e-5,0 -1e-5,0 -10.46776,-0.80856 -25.08174,-0.0743 -40.20537,6.15124 0,1e-5 0,1e-5 -1e-5,1e-5 -17.62918,7.43566 -32.41965,19.59516 -48.32099,35.08483 -5.91033,5.73555 -11.49772,11.95863 -16.78083,18.6579 -19.72118,25.00749 -32.48508,53.342374 -40.81506,75.19138 0,2e-6 0,5e-6 0,8e-6 -4.17844,10.881468 -7.03861,21.917721 -8.97978,30.057906 -1.48233,6.082527 -2.094537,10.983672 -3.12167,14.87329 -1.23832,4.531272 -2.57332,7.291247 -3.88403,9.558878 -1.207778,2.089548 -2.071928,3.25391 -1.691329,3.817214 z"
       id="path945"
       inkscape:connector-curvature="0"
       inkscape:path-effect="#path-effect947;#path-effect949"
       inkscape:original-d="m 92.982141,-15.964294 c 5.478857,-3.211962 10.040289,-12.403844 11.339289,-18.898809 1.49299,-7.464986 4.55404,-15.66578 7.55952,-22.678572 2.40019,-5.600446 3.5361,-11.735991 6.04762,-17.386903 13.92238,-31.325352 30.67174,-62.421742 55.18452,-86.934522 13.78988,-13.78987 30.69274,-23.04229 45.35715,-34.77381 7.56465,-6.05172 60.47618,-14.20517 60.47618,-2.26786" />
    <path
       style="fill:#ffffff;stroke:none;stroke-width:0.26458332px;stroke-linecap:butt;stroke-linejoin:miter;stroke-opacity:1"
       d="m 207.13095,-155.81548 c 0.79401,0.21502 1.38205,1.47042 2.71587,2.27103 0.87666,0.57078 1.45285,0.74114 2.93406,1.48821 1.1121,0.47198 3.2317,0.30475 6.85445,2.27642 1.81047,0.85578 3.36902,1.81121 4.16252,1.58485 6.62064,0.67038 13.76804,-0.40783 22.36377,-3.08303 0.64518,-0.2008 1.2866,-0.40682 1.92293,-0.61666 0,0 1e-5,0 1e-5,0 13.35739,-4.65318 21.42234,-9.44333 28.25666,-14.69645 4.71951,-3.61357 7.46559,-6.45055 8.65284,-5.85532 1.14585,0.57447 0.8263,4.93631 -3.36836,10.84154 -5.40086,7.60774 -15.24392,15.61052 -29.73201,20.65158 0,0 0,10e-6 0,10e-6 -0.72369,0.26364 -1.45915,0.51721 -2.20573,0.7592 -9.86928,3.19898 -19.38053,3.63324 -27.64461,1.58395 -3.59221,-1.04507 -5.8303,-2.82916 -7.2089,-4.14775 -0.8347,-1.07589 -3.71485,-2.16791 -5.89139,-4.14512 -1.2035,-1.21861 -2.18242,-2.51334 -2.82543,-3.8991 -1.99712,-3.963 0.89718,-5.04481 1.01332,-5.01336 z"
       id="path951"
       inkscape:connector-curvature="0"
       inkscape:path-effect="#path-effect953;#path-effect955"
       inkscape:original-d="m 207.13095,-155.81548 c -1.2523,3.75941 5.12114,7.75466 9.07143,9.07143 1.94201,0.64733 3.22642,2.50749 5.29167,3.02381 19.95938,4.98984 54.2775,-10.28123 63.50001,-28.72619" />
    <path
       style="fill:#ffffff;stroke:none;stroke-width:0.26458332px;stroke-linecap:butt;stroke-linejoin:miter;stroke-opacity:1"
       d="m 283.48215,-183.78572 c 0.26451,0.39962 2.20323,-0.82086 5.06922,-2.14293 0.63132,-0.28336 1.33959,-0.5694 1.94904,-0.58657 0.47105,-0.024 0.9932,0.0925 1.38338,0.35884 5.72913,3.14527 10.90363,9.08883 14.90865,19.52279 3.08267,8.3115 5.07315,17.83705 5.44047,28.46071 0.15309,4.42759 0.0133,8.76034 -0.35238,12.93479 -0.53719,6.72597 -3.50408,14.89739 -5.15601,20.96389 -1.05146,3.5565 -1.49084,6.149345 -2.99078,8.131709 -7.73159,10.748455 -15.41065,15.016533 -14.95993,15.922247 0.3445,0.692273 9.30274,-1.517395 18.96319,-12.761653 2.3985,-2.957318 3.49271,-6.245962 4.56658,-9.568743 1.99873,-5.74399 5.3329,-13.85972 6.27801,-22.02189 0.4908,-4.44831 0.69157,-9.08525 0.52453,-13.83998 -0.40051,-11.40068 -2.84628,-21.69532 -6.60632,-30.50248 -4.71546,-11.38631 -12.13267,-17.95269 -19.09097,-20.59267 -1.24164,-0.47651 -2.49085,-0.47898 -3.56309,-0.18473 -1.19147,0.35533 -2.09419,0.94789 -2.75063,1.48982 -2.85876,2.31446 -3.67972,4.31598 -3.61296,4.41685 z"
       id="path957"
       inkscape:connector-curvature="0"
       inkscape:path-effect="#path-effect959;#path-effect961"
       inkscape:original-d="m 283.48215,-183.78572 c 2.54508,-1.69216 6.30298,-5.54196 9.82736,-3.77976 23.54257,11.77128 27.4837,61.44929 16.63097,83.15476 -1.28347,2.56693 -1.26849,5.975056 -3.02382,8.315475 -4.96615,6.621529 -10.8686,12.237879 -18.14285,15.875" />
    <path
       style="fill:#ffffff;stroke:none;stroke-width:0.26458332px;stroke-linecap:butt;stroke-linejoin:miter;stroke-opacity:1"
       d="m 280.45833,-168.66667 c -0.14544,0.48236 1.07016,1.11226 2.68903,2.66398 1.60995,1.54317 3.6439,4.11051 4.7093,7.88001 0.98067,3.48686 2.40974,8.53303 4.05301,13.19815 0,0 0,0 0,0 2.45329,6.8609 2.8839,14.55912 2.2959,23.88613 -0.0556,0.88171 -0.11883,1.76023 -0.18719,2.63179 0,0 0,0 0,0 -1.31206,15.03642 -3.51578,25.335363 -6.83725,34.642349 0,0 0,3e-6 0,3e-6 -2.898,8.155251 -4.56497,13.838278 -3.69898,14.127354 0.2924,0.09761 3.88874,-4.248641 8.02724,-12.234827 0,0 0,-2e-6 0,-2e-6 4.66434,-9.013978 8.02271,-20.690467 9.38991,-35.925767 0,-1e-5 0,-1e-5 0,-1e-5 0.0898,-0.91496 0.16883,-1.84205 0.23449,-2.77903 0.69122,-9.86444 -0.27328,-18.75344 -3.5695,-26.56439 0,0 0,0 0,-1e-5 -2.00528,-4.61438 -3.69323,-8.92623 -5.29299,-12.56614 -4.65425,-11.09474 -11.99697,-8.34932 -11.81297,-8.95959 z"
       id="path987"
       inkscape:connector-curvature="0"
       inkscape:path-effect="#path-effect989;#path-effect991"
       inkscape:original-d="m 280.45833,-168.66667 c 10.62593,3.68249 9.68655,13.32551 13.60715,21.16666 7.55436,15.10871 2.4625,47.926738 -4.53573,64.255956 -1.95019,4.550436 -4.48148,8.908722 -6.0476,13.607142" />
    <path
       style="fill:#ffffff;stroke:none;stroke-width:0.26458332px;stroke-linecap:butt;stroke-linejoin:miter;stroke-opacity:1"
       d="m -130.02381,86.089277 c 0.1784,-0.318572 4.8136,2.117231 12.65959,5.02495 8.10981,3.005489 18.719152,6.044226 31.710448,7.391745 0.978178,0.101462 1.949871,0.1912 2.914618,0.269759 6.149519,0.502066 12.158839,0.290304 17.600625,0.883302 2.711593,0.330146 5.985961,-0.392305 8.560742,-0.7499 0,0 3e-6,0 3e-6,0 10.591054,-1.505851 17.268478,0.125382 17.268266,0.03133 9.32e-4,0.413016 -6.848133,0.05665 -16.931889,1.990245 0,0 -2e-6,0 -2e-6,0 -2.46263,0.48053 -5.824136,1.3369 -9.123476,1.09246 -5.25016,-0.43072 -11.194352,-0.12127 -17.583353,-0.61514 -0.985855,-0.0764 -1.978816,-0.16597 -2.978256,-0.26937 -13.234131,-1.369196 -24.120816,-4.790613 -32.137206,-8.291031 -7.82348,-3.416187 -12.10088,-6.506982 -11.96011,-6.758352 z"
       id="path993"
       inkscape:connector-curvature="0"
       inkscape:path-effect="#path-effect995;#path-effect997"
       inkscape:original-d="m -130.02381,86.089277 c 18.07967,9.962311 36.050635,14.363093 57.452383,14.363093 4.095115,0 9.689293,0.97946 13.607143,0 5.7922,-1.44805 13.63931,-1.511905 19.65476,-1.511905" />
    <path
       style="fill:#ffffff;stroke:none;stroke-width:0.26458332px;stroke-linecap:butt;stroke-linejoin:miter;stroke-opacity:1"
       d="m -48.380951,97.428562 c -0.790315,-1.092834 -8.063158,2.123475 -19.612952,9.741968 -10.866618,7.16785 -28.155297,20.05784 -43.064447,38.26134 -3.39937,4.2499 -8.16893,7.64613 -13.86853,11.84134 -5.19065,3.67446 -11.30685,8.09546 -16.6175,14.21829 -3.51266,4.14393 -7.82819,8.25438 -12.27346,13.0148 -1.60636,1.72012 -4.95413,3.96844 -8.47994,8.36179 -1.76006,2.1845 -3.04889,5.15578 -3.49845,8.78777 -0.14703,4.36504 0.88579,7.98432 2.52448,10.6119 0.27426,0.49546 0.54237,0.99644 0.80455,1.50276 2.8091,5.42498 4.86876,11.33407 6.48339,17.317 6.52804,24.98042 13.20534,45.79525 25.79044,64.18241 2.46955,3.16834 3.76921,8.30459 5.26948,13.20455 1.54931,5.85406 3.58532,11.63017 7.49357,16.78519 2.02018,2.22377 3.28157,5.70927 4.33726,8.90546 1.4594,4.69866 2.02491,7.60333 3.73366,11.79973 2.32348,5.56325 2.95952,8.05512 5.18249,11.41854 1.68884,2.55526 3.12189,3.44425 3.63524,3.11661 0.556551,-0.35522 0.19136,-1.87198 -0.23488,-4.4953 -0.43123,-2.65402 -0.6086,-6.57579 -1.80657,-12.12212 -0.61745,-3.17213 -0.84971,-7.02772 -1.61229,-11.76404 -0.55381,-3.80572 -1.71307,-8.51363 -4.60997,-13.0961 -2.22249,-3.3277 -2.9545,-7.63124 -4.23087,-13.43069 -0.89582,-4.97861 -2.21839,-11.36497 -5.86879,-17.64254 -10.3663,-17.01777 -15.20847,-35.76045 -21.68427,-60.85922 -1.72242,-6.86827 -4.15669,-13.88613 -7.63619,-20.66076 -0.32443,-0.63166 -0.65712,-1.2596 -0.99825,-1.88364 -0.41959,-1.11646 -0.82407,-1.70141 -0.61777,-1.55211 -0.16307,0.21454 0.0677,-0.0238 0.34249,-0.56276 0.94967,-1.5967 3.97703,-3.52004 7.33399,-7.18571 4.11629,-4.53185 8.31456,-8.70101 12.52978,-13.9004 3.37133,-4.36874 8.55693,-8.25615 13.59014,-12.28803 5.69115,-4.39049 11.2615,-9.08158 15.87389,-15.26777 12.270602,-17.17656 28.169789,-31.88629 37.140654,-40.33097 9.88825,-9.30826 15.557268,-14.774215 14.649625,-16.029288 z"
       id="path999"
       inkscape:connector-curvature="0"
       inkscape:path-effect="#path-effect1001;#path-effect1003"
       inkscape:original-d="m -48.380951,97.428562 c -19.620378,14.025718 -37.068815,31.777148 -54.428569,49.136898 -3.8897,3.88971 -7.01953,8.63944 -11.33929,12.09524 -8.08245,6.46597 -17.07981,13.30005 -24.19047,20.41072 -0.56346,0.56345 -0.1925,1.7044 -0.75596,2.26786 -2.17167,2.17167 -19.65476,18.73673 -19.65476,18.8988 0,6.44665 7.67572,15.70004 9.07143,22.67857 4.38682,21.93409 15.04068,44.02729 23.43452,65.0119 1.90969,4.77425 5.56718,10.17347 6.80358,15.11906 1.63148,6.52595 4.63886,18.24601 8.31547,21.92261 0.89561,0.89561 7.17788,32.1243 10.58333,35.52978" />
  </g>
</svg>
