<?xml version="1.0" encoding="UTF-8" standalone="no"?>
<!-- Created with Inkscape (http://www.inkscape.org/) -->

<svg
   xmlns:dc="http://purl.org/dc/elements/1.1/"
   xmlns:cc="http://creativecommons.org/ns#"
   xmlns:rdf="http://www.w3.org/1999/02/22-rdf-syntax-ns#"
   xmlns:svg="http://www.w3.org/2000/svg"
   xmlns="http://www.w3.org/2000/svg"
   xmlns:sodipodi="http://sodipodi.sourceforge.net/DTD/sodipodi-0.dtd"
   xmlns:inkscape="http://www.inkscape.org/namespaces/inkscape"
   width="854.81213"
   height="1894.4321"
   viewBox="0 0 226.16904 501.23519"
   version="1.1"
   id="svg8"
   inkscape:version="0.92.3 (unknown)"
   sodipodi:docname="white-flamingo2.svg">
  <defs
     id="defs2">
    <inkscape:path-effect
       effect="skeletal"
       id="path-effect1070"
       is_visible="true"
       pattern="M 0,5 C 0,2.24 2.24,0 5,0 7.76,0 10,2.24 10,5 10,7.76 7.76,10 5,10 2.24,10 0,7.76 0,5 Z"
       copytype="single_stretched"
       prop_scale="0.26458333"
       scale_y_rel="false"
       spacing="0"
       normal_offset="0"
       tang_offset="0"
       prop_units="false"
       vertical_pattern="false"
       fuse_tolerance="0" />
    <inkscape:path-effect
       effect="simplify"
       id="path-effect1068"
       is_visible="true"
       steps="1"
       threshold="0.00537302"
       smooth_angles="360"
       helper_size="0"
       simplify_individual_paths="false"
       simplify_just_coalesce="false"
       simplifyindividualpaths="false"
       simplifyJustCoalesce="false" />
    <inkscape:path-effect
       effect="skeletal"
       id="path-effect1064"
       is_visible="true"
       pattern="M 0,5 C 0,2.24 2.24,0 5,0 7.76,0 10,2.24 10,5 10,7.76 7.76,10 5,10 2.24,10 0,7.76 0,5 Z"
       copytype="single_stretched"
       prop_scale="-0.38420602"
       scale_y_rel="false"
       spacing="0"
       normal_offset="0"
       tang_offset="0"
       prop_units="false"
       vertical_pattern="false"
       fuse_tolerance="0" />
    <inkscape:path-effect
       effect="simplify"
       id="path-effect1062"
       is_visible="true"
       steps="1"
       threshold="0.00537302"
       smooth_angles="360"
       helper_size="0"
       simplify_individual_paths="false"
       simplify_just_coalesce="false"
       simplifyindividualpaths="false"
       simplifyJustCoalesce="false" />
    <inkscape:path-effect
       effect="skeletal"
       id="path-effect1058"
       is_visible="true"
       pattern="M 0,5 C 0,2.24 2.24,0 5,0 7.76,0 10,2.24 10,5 10,7.76 7.76,10 5,10 2.24,10 0,7.76 0,5 Z"
       copytype="single_stretched"
       prop_scale="-0.54537994"
       scale_y_rel="false"
       spacing="0"
       normal_offset="0"
       tang_offset="0"
       prop_units="false"
       vertical_pattern="false"
       fuse_tolerance="0" />
    <inkscape:path-effect
       effect="simplify"
       id="path-effect1056"
       is_visible="true"
       steps="1"
       threshold="0.00537302"
       smooth_angles="360"
       helper_size="0"
       simplify_individual_paths="false"
       simplify_just_coalesce="false"
       simplifyindividualpaths="false"
       simplifyJustCoalesce="false" />
    <inkscape:path-effect
       effect="skeletal"
       id="path-effect1052"
       is_visible="true"
       pattern="M 0,5 C 0,2.24 2.24,0 5,0 7.76,0 10,2.24 10,5 10,7.76 7.76,10 5,10 2.24,10 0,7.76 0,5 Z"
       copytype="single_stretched"
       prop_scale="0.57202467"
       scale_y_rel="false"
       spacing="0"
       normal_offset="0"
       tang_offset="0"
       prop_units="false"
       vertical_pattern="false"
       fuse_tolerance="0" />
    <inkscape:path-effect
       effect="simplify"
       id="path-effect1050"
       is_visible="true"
       steps="1"
       threshold="0.00537302"
       smooth_angles="360"
       helper_size="0"
       simplify_individual_paths="false"
       simplify_just_coalesce="false"
       simplifyindividualpaths="false"
       simplifyJustCoalesce="false" />
    <inkscape:path-effect
       effect="skeletal"
       id="path-effect1040"
       is_visible="true"
       pattern="M 0,5 C 0,2.24 2.24,0 5,0 7.76,0 10,2.24 10,5 10,7.76 7.76,10 5,10 2.24,10 0,7.76 0,5 Z"
       copytype="single_stretched"
       prop_scale="0.26458333"
       scale_y_rel="false"
       spacing="0"
       normal_offset="0"
       tang_offset="0"
       prop_units="false"
       vertical_pattern="false"
       fuse_tolerance="0" />
    <inkscape:path-effect
       effect="simplify"
       id="path-effect1038"
       is_visible="true"
       steps="1"
       threshold="0.00537302"
       smooth_angles="360"
       helper_size="0"
       simplify_individual_paths="false"
       simplify_just_coalesce="false"
       simplifyindividualpaths="false"
       simplifyJustCoalesce="false" />
    <inkscape:path-effect
       effect="skeletal"
       id="path-effect1028"
       is_visible="true"
       pattern="M 0,5 C 0,2.24 2.24,0 5,0 7.76,0 10,2.24 10,5 10,7.76 7.76,10 5,10 2.24,10 0,7.76 0,5 Z"
       copytype="single_stretched"
       prop_scale="0.26458333"
       scale_y_rel="false"
       spacing="0"
       normal_offset="0"
       tang_offset="0"
       prop_units="false"
       vertical_pattern="false"
       fuse_tolerance="0" />
    <inkscape:path-effect
       effect="simplify"
       id="path-effect1026"
       is_visible="true"
       steps="1"
       threshold="0.00537302"
       smooth_angles="360"
       helper_size="0"
       simplify_individual_paths="false"
       simplify_just_coalesce="false"
       simplifyindividualpaths="false"
       simplifyJustCoalesce="false" />
    <inkscape:path-effect
       effect="skeletal"
       id="path-effect1003"
       is_visible="true"
       pattern="M 0,5 C 0,2.24 2.24,0 5,0 7.76,0 10,2.24 10,5 10,7.76 7.76,10 5,10 2.24,10 0,7.76 0,5 Z"
       copytype="single_stretched"
       prop_scale="-1.6031647"
       scale_y_rel="false"
       spacing="0"
       normal_offset="0"
       tang_offset="0"
       prop_units="false"
       vertical_pattern="false"
       fuse_tolerance="0" />
    <inkscape:path-effect
       effect="simplify"
       id="path-effect1001"
       is_visible="true"
       steps="1"
       threshold="0.00537302"
       smooth_angles="360"
       helper_size="0"
       simplify_individual_paths="false"
       simplify_just_coalesce="false"
       simplifyindividualpaths="false"
       simplifyJustCoalesce="false" />
    <inkscape:path-effect
       effect="skeletal"
       id="path-effect997"
       is_visible="true"
       pattern="M 0,5 C 0,2.24 2.24,0 5,0 7.76,0 10,2.24 10,5 10,7.76 7.76,10 5,10 2.24,10 0,7.76 0,5 Z"
       copytype="single_stretched"
       prop_scale="0.26458333"
       scale_y_rel="false"
       spacing="0"
       normal_offset="0"
       tang_offset="0"
       prop_units="false"
       vertical_pattern="false"
       fuse_tolerance="0" />
    <inkscape:path-effect
       effect="simplify"
       id="path-effect995"
       is_visible="true"
       steps="1"
       threshold="0.00537302"
       smooth_angles="360"
       helper_size="0"
       simplify_individual_paths="false"
       simplify_just_coalesce="false"
       simplifyindividualpaths="false"
       simplifyJustCoalesce="false" />
    <inkscape:path-effect
       effect="skeletal"
       id="path-effect991"
       is_visible="true"
       pattern="M 0,5 C 0,2.24 2.24,0 5,0 7.76,0 10,2.24 10,5 10,7.76 7.76,10 5,10 2.24,10 0,7.76 0,5 Z"
       copytype="single_stretched"
       prop_scale="-0.6916549"
       scale_y_rel="false"
       spacing="0"
       normal_offset="0"
       tang_offset="0"
       prop_units="false"
       vertical_pattern="false"
       fuse_tolerance="0" />
    <inkscape:path-effect
       effect="simplify"
       id="path-effect989"
       is_visible="true"
       steps="1"
       threshold="0.00537302"
       smooth_angles="360"
       helper_size="0"
       simplify_individual_paths="false"
       simplify_just_coalesce="false"
       simplifyindividualpaths="false"
       simplifyJustCoalesce="false" />
    <inkscape:path-effect
       effect="skeletal"
       id="path-effect961"
       is_visible="true"
       pattern="M 0,5 C 0,2.24 2.24,0 5,0 7.76,0 10,2.24 10,5 10,7.76 7.76,10 5,10 2.24,10 0,7.76 0,5 Z"
       copytype="single_stretched"
       prop_scale="-0.68683027"
       scale_y_rel="false"
       spacing="0"
       normal_offset="0"
       tang_offset="0"
       prop_units="false"
       vertical_pattern="false"
       fuse_tolerance="0" />
    <inkscape:path-effect
       effect="simplify"
       id="path-effect959"
       is_visible="true"
       steps="1"
       threshold="0.00537302"
       smooth_angles="360"
       helper_size="0"
       simplify_individual_paths="false"
       simplify_just_coalesce="false"
       simplifyindividualpaths="false"
       simplifyJustCoalesce="false" />
    <inkscape:path-effect
       effect="skeletal"
       id="path-effect955"
       is_visible="true"
       pattern="M 0,5 C 0,2.24 2.24,0 5,0 7.76,0 10,2.24 10,5 10,7.76 7.76,10 5,10 2.24,10 0,7.76 0,5 Z"
       copytype="single_stretched"
       prop_scale="1.1597757"
       scale_y_rel="false"
       spacing="0"
       normal_offset="0"
       tang_offset="0"
       prop_units="false"
       vertical_pattern="false"
       fuse_tolerance="0" />
    <inkscape:path-effect
       effect="simplify"
       id="path-effect953"
       is_visible="true"
       steps="1"
       threshold="0.00537302"
       smooth_angles="360"
       helper_size="0"
       simplify_individual_paths="false"
       simplify_just_coalesce="false"
       simplifyindividualpaths="false"
       simplifyJustCoalesce="false" />
    <inkscape:path-effect
       effect="skeletal"
       id="path-effect949"
       is_visible="true"
       pattern="M 0,5 C 0,2.24 2.24,0 5,0 7.76,0 10,2.24 10,5 10,7.76 7.76,10 5,10 2.24,10 0,7.76 0,5 Z"
       copytype="single_stretched"
       prop_scale="-1.5949671"
       scale_y_rel="false"
       spacing="0"
       normal_offset="0"
       tang_offset="0"
       prop_units="false"
       vertical_pattern="false"
       fuse_tolerance="0" />
    <inkscape:path-effect
       effect="simplify"
       id="path-effect947"
       is_visible="true"
       steps="1"
       threshold="0.00537302"
       smooth_angles="360"
       helper_size="0"
       simplify_individual_paths="false"
       simplify_just_coalesce="false"
       simplifyindividualpaths="false"
       simplifyJustCoalesce="false" />
    <inkscape:path-effect
       effect="skeletal"
       id="path-effect943"
       is_visible="true"
       pattern="M 0,5 C 0,2.24 2.24,0 5,0 7.76,0 10,2.24 10,5 10,7.76 7.76,10 5,10 2.24,10 0,7.76 0,5 Z"
       copytype="single_stretched"
       prop_scale="-2.203165"
       scale_y_rel="false"
       spacing="0"
       normal_offset="0"
       tang_offset="0"
       prop_units="false"
       vertical_pattern="false"
       fuse_tolerance="0" />
    <inkscape:path-effect
       effect="simplify"
       id="path-effect941"
       is_visible="true"
       steps="1"
       threshold="0.00537302"
       smooth_angles="360"
       helper_size="0"
       simplify_individual_paths="false"
       simplify_just_coalesce="false"
       simplifyindividualpaths="false"
       simplifyJustCoalesce="false" />
    <inkscape:path-effect
       effect="skeletal"
       id="path-effect937"
       is_visible="true"
       pattern="M 0,5 C 0,2.24 2.24,0 5,0 7.76,0 10,2.24 10,5 10,7.76 7.76,10 5,10 2.24,10 0,7.76 0,5 Z"
       copytype="single_stretched"
       prop_scale="2.1671256"
       scale_y_rel="false"
       spacing="0"
       normal_offset="0"
       tang_offset="0"
       prop_units="false"
       vertical_pattern="false"
       fuse_tolerance="0" />
    <inkscape:path-effect
       effect="simplify"
       id="path-effect935"
       is_visible="true"
       steps="1"
       threshold="0.00537302"
       smooth_angles="360"
       helper_size="0"
       simplify_individual_paths="false"
       simplify_just_coalesce="false"
       simplifyindividualpaths="false"
       simplifyJustCoalesce="false" />
    <inkscape:path-effect
       effect="skeletal"
       id="path-effect931"
       is_visible="true"
       pattern="M 0,5 C 0,2.24 2.24,0 5,0 7.76,0 10,2.24 10,5 10,7.76 7.76,10 5,10 2.24,10 0,7.76 0,5 Z"
       copytype="single_stretched"
       prop_scale="0.26458333"
       scale_y_rel="false"
       spacing="0"
       normal_offset="0"
       tang_offset="0"
       prop_units="false"
       vertical_pattern="false"
       fuse_tolerance="0" />
    <inkscape:path-effect
       effect="simplify"
       id="path-effect929"
       is_visible="true"
       steps="1"
       threshold="0.00537302"
       smooth_angles="360"
       helper_size="0"
       simplify_individual_paths="false"
       simplify_just_coalesce="false"
       simplifyindividualpaths="false"
       simplifyJustCoalesce="false" />
    <inkscape:path-effect
       effect="skeletal"
       id="path-effect925"
       is_visible="true"
       pattern="M 0,5 C 0,2.24 2.24,0 5,0 7.76,0 10,2.24 10,5 10,7.76 7.76,10 5,10 2.24,10 0,7.76 0,5 Z"
       copytype="single_stretched"
       prop_scale="0.26458333"
       scale_y_rel="false"
       spacing="0"
       normal_offset="0"
       tang_offset="0"
       prop_units="false"
       vertical_pattern="false"
       fuse_tolerance="0" />
    <inkscape:path-effect
       effect="simplify"
       id="path-effect923"
       is_visible="true"
       steps="1"
       threshold="0.00537302"
       smooth_angles="360"
       helper_size="0"
       simplify_individual_paths="false"
       simplify_just_coalesce="false"
       simplifyindividualpaths="false"
       simplifyJustCoalesce="false" />
    <inkscape:path-effect
       effect="skeletal"
       id="path-effect919"
       is_visible="true"
       pattern="M 0,5 C 0,2.24 2.24,0 5,0 7.76,0 10,2.24 10,5 10,7.76 7.76,10 5,10 2.24,10 0,7.76 0,5 Z"
       copytype="single_stretched"
       prop_scale="0.26458333"
       scale_y_rel="false"
       spacing="0"
       normal_offset="0"
       tang_offset="0"
       prop_units="false"
       vertical_pattern="false"
       fuse_tolerance="0" />
    <inkscape:path-effect
       effect="simplify"
       id="path-effect917"
       is_visible="true"
       steps="1"
       threshold="0.00537302"
       smooth_angles="360"
       helper_size="0"
       simplify_individual_paths="false"
       simplify_just_coalesce="false"
       simplifyindividualpaths="false"
       simplifyJustCoalesce="false" />
  </defs>
  <sodipodi:namedview
     id="base"
     pagecolor="#ffffff"
     bordercolor="#666666"
     borderopacity="1.0"
     inkscape:pageopacity="0.0"
     inkscape:pageshadow="2"
     inkscape:zoom="0.35"
     inkscape:cx="399.60429"
     inkscape:cy="1115.655"
     inkscape:document-units="px"
     inkscape:current-layer="layer1"
     showgrid="false"
     units="px"
     showborder="false"
     inkscape:snap-others="false"
     inkscape:snap-nodes="false"
     fit-margin-top="0"
     fit-margin-left="0"
     fit-margin-right="0"
     fit-margin-bottom="0"
     inkscape:window-width="1920"
     inkscape:window-height="1056"
     inkscape:window-x="0"
     inkscape:window-y="24"
     inkscape:window-maximized="1" />
  <metadata
     id="metadata5">
    <rdf:RDF>
      <cc:Work
         rdf:about="">
        <dc:format>image/svg+xml</dc:format>
        <dc:type
           rdf:resource="http://purl.org/dc/dcmitype/StillImage" />
        <dc:title></dc:title>
      </cc:Work>
    </rdf:RDF>
  </metadata>
  <g
     inkscape:label="Layer 1"
     inkscape:groupmode="layer"
     id="layer1"
     transform="translate(104.59469,160.32482)">
    <path
       style="fill:#ffffff;stroke:none;stroke-width:0.26458332px;stroke-linecap:butt;stroke-linejoin:miter;stroke-opacity:1"
       d="m 3.5296568,9.0472614 c 0.3276828,-0.0249 2.1615799,14.9811506 8.3483982,39.3255836 2.634339,10.341995 6.452202,25.190174 7.179899,39.667939 0.682286,13.724986 0.0864,28.742246 1.525586,44.444716 1.064758,11.59052 3.507349,25.29774 2.713021,38.13335 -0.08715,1.37673 -0.150081,2.75903 -0.189443,4.14651 -0.177014,6.23968 0.127267,12.4244 0.782131,18.46582 2.585982,23.92361 0.434676,51.43606 -0.324368,70.43475 -0.403842,10.28096 -0.932222,18.2872 0.0519,26.89698 0.438567,3.94976 -0.227822,7.80724 -1.145846,11.16585 0,0 -3e-6,0 -3e-6,0 -1.039066,3.82818 -2.327376,7.26019 -3.191179,10.50812 -4.727016,17.77783 -4.889596,28.68055 -5.166758,28.67348 -0.290074,-0.007 -0.667223,-10.9115 3.717986,-29.0412 0.812673,-3.35725 2.036595,-6.83965 2.97507,-10.57566 1e-6,0 2e-6,0 2e-6,0 0.813097,-3.26293 1.395684,-6.91968 0.920134,-10.50111 -1.127626,-8.78918 -0.709604,-16.97731 -0.400211,-27.20432 0.561877,-18.97262 2.546152,-46.61694 -0.05063,-70.07093 -0.678392,-6.14599 -0.993199,-12.45084 -0.812482,-18.82676 0.04018,-1.4177 0.104635,-2.83078 0.193982,-4.23883 C 21.460239,158.07705 19.052148,144.4609 18.033192,132.7132 16.646752,116.76789 17.343819,101.75406 16.798546,88.142242 16.241364,74.013171 12.633084,59.131444 10.205724,48.781914 4.4459137,24.284517 2.5031621,9.1252631 3.5296568,9.0472614 Z"
       id="path1036"
       inkscape:connector-curvature="0"
       inkscape:path-effect="#path-effect1038;#path-effect1040"
       inkscape:original-d="M 3.5296568,9.0472614 C 5.5615774,33.536597 13.065214,56.433271 17.136781,80.862726 c 2.544921,15.269448 -1.028568,31.626094 1.511908,46.869054 2.152571,12.91543 0.871564,26.39603 3.023817,39.30952 1.022218,6.13339 -0.879792,12.74032 0,18.89882 1.886426,13.20506 2.26785,26.44772 2.26785,40.06548 0,13.51635 -1.511909,27.06381 -1.511909,40.06546 0,6.38381 2.892452,15.51315 0.755968,21.92263 -1.45923,4.37772 0.453919,11.1874 -1.511909,15.11903 -3.807433,7.6149 -7.559516,28.02605 -7.559516,37.79764" />
    <path
       style="fill:#ffffff;stroke:none;stroke-width:0.26458332px;stroke-linecap:butt;stroke-linejoin:miter;stroke-opacity:1"
       d="m -65.262017,-27.994405 c 0.369918,-0.770989 6.290115,2.144607 15.606546,8.951954 3.740764,2.714256 9.276831,6.835657 14.957359,9.0997041 8.651451,3.5155143 17.899012,4.9145761 30.0510761,6.0761282 6.3358283,0.5821238 13.2580479,-0.3197641 19.5973179,-3.2199262 5.604185,-2.6017278 10.911141,-7.0764761 13.169498,-12.9937091 2.205542,-5.528439 3.43564,-11.52027 4.484482,-17.925814 1.031403,-6.866708 2.130785,-14.003265 -0.03879,-19.999069 -0.0052,-0.01528 -0.281937,-0.828577 -0.287126,-0.843855 -3.218277,-9.442799 -6.360265,-18.249423 -8.603664,-27.674204 -2.465168,-10.296819 -3.441436,-20.476094 -2.087995,-30.300634 1.328782,-9.31375 5.605185,-17.48323 10.82023,-23.80763 l 0,0 8e-6,-1e-5 0,0 c 6.04876,-7.34991 13.34343,-12.58841 20.292471,-16.11226 l 0,0 c 10.63506,-5.38537 21.385111,-3.78992 27.929407,-1.10029 l 0,0 c 6.782009,3.39947 11.337749,6.59799 12.536631,7.84121 l 0,0 c -0.121468,0.0673 -0.202709,0.0877 -0.245349,0.0868 l 0,0 c -0.04145,-0.0681 -0.07661,-0.1301 -0.10549,-0.18598 l 0,0 c 0,0 -10e-7,0 -10e-7,0 -0.04119,-0.0819 -0.06962,-0.15029 -0.08514,-0.20512 0,0 0,0 0,0 0.02407,-0.0995 0.0046,-0.1476 0.0032,-0.1503 0,0 0,0 0,0 -7.94e-4,-0.001 -5.91e-4,-0.001 -5.91e-4,-0.001 0,0 -1.26e-4,-2.1e-4 0.0013,6.7e-4 0,0 0,0 0,0 0.0026,0.002 0.04941,0.024 0.150216,0.006 0,0 0,0 0,0 0.05378,0.0189 0.120337,0.0514 0.199511,0.0976 0,0 0,0 0,0 l 0,0 c 0.05401,0.0323 0.113767,0.0711 0.179162,0.11669 l 0,0 c -2.33e-4,0.0443 -0.02373,0.12595 -0.09735,0.24421 l 9.36e-4,9.9e-4 c -2.193429,-2.12021 -4.005187,-3.08422 -13.404849,-5.4957 l 0,0 c -6.21703,-2.0118 -16.076129,-2.85685 -25.191483,2.26106 l 0,0 c -6.405504,3.57771 -13.064731,8.68703 -18.438755,15.58175 l 2e-6,0 -7e-6,0 0,0 c -4.592116,5.9054 -8.323945,13.35503 -9.309665,21.51487 -1.139236,8.99499 -0.07268,18.456348 2.314401,28.291157 2.206712,9.038197 5.320834,17.623599 8.558697,27.146823 -0.0044,-0.01302 0.293015,0.863655 0.288589,0.850637 2.507328,7.798911 1.445065,15.819624 0.203689,22.755051 -1.086701,6.563151 -2.485582,12.954552 -4.96387,19.060842 C 30.069149,-10.500747 23.74198,-5.1941042 17.068493,-2.3292696 9.7341644,0.85881728 1.9353531,1.706345 -5.1493607,0.86305806 -17.372089,-0.56377133 -27.166267,-2.4679524 -36.159884,-6.5472036 c -6.208835,-2.856355 -11.585708,-7.3497494 -15.160488,-10.3710944 -5.198276,-4.364683 -6.928965,-5.85669 -10.230296,-8.239505 -2.435056,-1.757559 -3.82687,-2.595831 -3.711349,-2.836602 z"
       id="path1048"
       inkscape:connector-curvature="0"
       inkscape:path-effect="#path-effect1050;#path-effect1052"
       inkscape:original-d="m -65.262017,-27.994405 c 15.251901,7.349665 17.501324,19.3263831 46.113096,24.1904757 2.430727,0.4132313 7.455122,0.9188423 9.8273761,1.5119059 15.3191368,3.8297855 35.6213229,-3.2984599 40.8214429,-18.8988086 1.394804,-4.18441 1.695186,-8.865373 3.023791,-12.851191 1.157737,-3.473212 3.425481,-16.937897 2.267876,-20.410715 -7.788434,-23.365298 -21.146346,-54.714422 -6.803575,-78.619042 7.456858,-12.4281 23.258197,-25.70238 38.553575,-25.70238 7.072815,0 15.12517,3.02687 21.166666,6.04761 1.289447,0.64473 4.741651,3.98571 3.023791,2.26786"
       sodipodi:nodetypes="cssssssscc" />
    <path
       style="fill:#ffffff;stroke:none;stroke-width:0.26458332px;stroke-linecap:butt;stroke-linejoin:miter;stroke-opacity:1"
       d="m 67.029656,-145.16702 c -0.186961,0.11436 0.266181,1.59177 1.715791,4.12177 1.246026,2.17469 4.045414,6.5752 8.995926,8.80748 2.368705,1.00981 5.588282,0.96275 8.161734,-1.08031 2.645036,-2.24271 4.225947,-5.05412 5.911117,-8.04904 1.448353,-2.376 2.979757,-4.99846 5.113772,-6.05328 -0.186703,-0.17007 0.243499,0.14918 0.738782,0.35918 0.650275,0.44497 1.242889,1.19496 1.968786,2.08151 2.594116,3.17615 3.759816,8.01014 6.538266,12.96134 1.43234,2.58659 3.09672,5.06675 3.94202,7.45889 3.48563,9.61317 7.01247,20.72296 5.80869,31.429502 -0.005,0.04448 -0.0101,0.08894 -0.0152,0.1334 -0.59602,6.209469 -4.27415,11.9408 -8.64402,16.377955 -1.19257,1.235529 -2.97984,2.302507 -4.79258,3.806477 -1.86151,1.367934 -3.592108,3.556541 -4.143473,6.548901 -0.03644,0.159287 -0.06955,0.530634 -0.0501,1.109895 4.3e-5,-7e-6 5e-5,-6e-6 5e-5,-6e-6 0.453302,0.03253 1.22977,0.613847 2.352727,1.728013 7e-5,1.24e-4 1.2e-4,1.02e-4 1.2e-4,1.02e-4 0.2227,-0.09309 0.44606,-0.19332 0.6491,-0.291449 1.07729,-0.520641 1.77526,-0.761143 2.15263,-0.666718 0,0 1e-5,-1.2e-5 1e-5,-1.2e-5 0.12875,-0.280123 0.22423,-0.521927 0.29624,-0.720775 0,0 1e-5,-9e-6 1e-5,-9e-6 0.32477,-0.862819 0.62337,-1.769962 0.85948,-2.72864 0.84327,-3.537708 2.43745,-7.031714 3.63202,-10.739648 1.32277,-3.880954 2.00815,-8.057944 1.06229,-12.194086 -0.81076,-3.085736 -0.817,-6.709047 -0.92744,-9.946452 -0.13285,-7.21057 -1.89841,-13.20786 -5.44978,-17.57194 -1.22103,-1.33535 -2.66494,-1.85919 -3.708635,-2.16197 -1.104825,-0.47648 -1.933471,-0.63198 -2.144543,-1.14908 0,0 -10e-7,0 -10e-7,0 -0.690106,-1.08346 -1.176286,-2.36591 -1.827527,-3.47166 -0.844628,-1.52225 -2.054108,-2.47324 -3.274366,-2.82799 -3.661731,-0.74197 -2.232379,2.37202 -2.999239,1.62746 0.08803,0.0855 0.33911,-0.0491 0.816264,-0.24948 0.390168,-0.1639 1.247039,-0.51478 1.738845,-0.1369 0.803691,0.37269 1.38932,1.16792 1.985969,2.47128 0.424625,1.00193 0.734271,2.27507 1.445559,3.74693 0,0 2e-6,0 2e-6,0 0.82199,1.37174 2.100765,2.12143 3.262132,2.53299 0.999762,0.49881 2.04025,0.88183 2.31294,1.47062 2.81078,3.85668 3.80965,9.01797 3.77468,15.7484 -0.0651,3.189351 -0.1868,7.067781 0.61967,10.935779 0.68542,2.875128 -0.0995,6.11006 -1.27088,9.631519 -1.18192,3.345081 -2.87961,6.879807 -3.993298,11.024482 -0.184441,0.692243 -0.438896,1.40616 -0.727924,2.154584 0,0 -3e-6,7e-6 -3e-6,7e-6 -0.06447,0.159435 -0.110072,0.275604 -0.146038,0.342799 0,0 -2e-6,3e-6 -2e-6,3e-6 0.286827,0.285188 0.911724,0.261524 1.821005,-0.130662 0.17138,-0.07392 0.34602,-0.168774 0.54493,-0.293853 0,0 4e-5,-2.9e-5 4e-5,-2.9e-5 1.07732,1.052805 1.85247,1.550676 2.30045,1.506735 0,0 1e-5,-10e-7 1e-5,-10e-7 -0.009,0.169395 0.0184,0.143337 0.0329,-0.106156 -0.0621,-0.918811 1.0679,-1.918751 2.33899,-3.110843 1.44079,-1.154754 3.34988,-2.297971 5.21568,-4.084463 5.12275,-4.942467 9.37918,-11.71524 10.30726,-19.595647 0.005,-0.05072 0.0102,-0.101438 0.0152,-0.15216 1.2006,-12.260964 -2.55369,-24.084894 -6.38985,-33.828284 -1.24457,-3.13213 -3.06584,-5.79736 -4.4444,-8.11475 -2.39729,-4.07804 -3.93328,-9.22698 -7.32171,-13.37734 -0.78028,-0.95799 -1.72411,-1.97434 -2.97561,-2.84951 -1.362963,-1.08044 -3.416885,-1.37256 -5.491456,-0.43072 -3.272437,2.13168 -5.102723,5.31548 -6.368181,7.9057 -1.66804,3.14137 -2.735262,5.60393 -4.692228,7.36212 -1.204573,1.2418 -3.338667,1.43171 -4.87282,0.93613 -4.070855,-1.25226 -7.228883,-5.14465 -8.752943,-6.98013 -1.815868,-2.18692 -2.747852,-3.38695 -3.007766,-3.22796 z"
       id="path1054"
       inkscape:connector-curvature="0"
       inkscape:path-effect="#path-effect1056;#path-effect1058"
       inkscape:original-d="m 67.029656,-145.16702 c 3.415797,5.75715 7.998698,12.09524 14.363091,12.09524 5.823823,0 13.164741,-16.63096 15.119033,-16.63096 4.54327,0 10.41532,11.4232 11.3393,15.11905 0.60317,2.41267 2.83718,4.44711 3.77976,6.80357 6.45708,16.1427 12.83665,37.812162 -0.75595,51.404763 -1.64907,1.649074 -12.28805,11.339286 -9.82738,11.339286 0.43516,0 6.4364,-24.536027 6.0476,-25.702379 -2.55096,-7.728585 3.38609,-25.27211 -10.58333,-29.48214 -1.265291,-1.26532 -3.354652,-10.25248 -7.559517,-6.04762"
       sodipodi:nodetypes="csscccsccc" />
    <path
       style="fill:#ffffff;stroke:none;stroke-width:0.26458332px;stroke-linecap:butt;stroke-linejoin:miter;stroke-opacity:1"
       d="m -104.57154,18.118691 c 0.1205,0.08501 1.19139,-0.869579 2.41572,-3.204773 1.33635,-2.548847 2.37747,-5.8043179 3.198162,-10.8610109 0.641203,-3.76790668 1.348724,-9.8891166 3.55106,-14.3054511 3.735981,-7.644622 9.03518,-18.880619 15.290147,-28.164439 0,0 4e-6,-6e-6 4e-6,-6e-6 5.916637,-8.783679 13.567494,-17.594583 23.102514,-24.766985 2.351893,-1.769134 4.762673,-3.396329 7.227654,-4.877036 9.20626,-5.508423 16.774724,-10.381518 25.632883,-12.658878 8.738691,-2.299901 17.3828746,-2.701344 24.91211361,-4.076071 7.17826109,-1.348937 14.21250739,0.620586 18.86659839,2.464143 7.961109,3.170814 12.469498,5.521248 12.630532,5.200513 0.01574,-0.03134 -3.931569,-3.217557 -11.841952,-7.000115 -4.723521,-2.266279 -12.0417254,-4.702919 -20.1286041,-3.532597 -7.3608267,1.083153 -15.9989709,1.26949 -25.3024879,3.516723 -9.561198,2.364992 -17.616721,7.329345 -26.736023,12.80456 -2.585479,1.546348 -5.109727,3.245966 -7.566236,5.093755 -9.96784,7.497818 -17.833703,16.685331 -23.791588,25.850864 0,0 -3e-6,7e-6 -3e-6,7e-6 -6.375716,9.810168 -11.340487,21.09952 -14.820414,28.971016 -2.27331,5.2099479 -2.68104,11.42183819 -3.06282,15.2038505 -1.02253,9.4154495 -3.88603,14.1240895 -3.57726,14.3419305 z"
       id="path1060"
       inkscape:connector-curvature="0"
       inkscape:path-effect="#path-effect1062;#path-effect1064"
       inkscape:original-d="m -104.57154,18.118691 c 4.39895,-6.37926 4.04448,-13.6835272 5.291666,-21.166666 0.869749,-5.2184855 4.076631,-10.520077 6.047621,-15.119048 5.983282,-13.960991 15.33233,-28.183521 25.70238,-38.553571 10.245436,-10.245437 24.909416,-18.342981 38.553571,-24.190477 7.651781,-3.279336 16.222389,-3.207697 24.1904752,-4.535712 4.73223161,-0.788705 11.0100003,-1.728957 15.8749998,-0.755954 7.356766,1.471355 14.798437,5.887317 21.166666,9.07143"
       sodipodi:nodetypes="cssssssc" />
    <path
       style="fill:#ffffff;stroke:none;stroke-width:0.26458332px;stroke-linecap:butt;stroke-linejoin:miter;stroke-opacity:1"
       d="m 14.868931,-1.5360718 c 0.214877,-0.1366511 2.59129,3.1928185 6.772626,8.8793651 3.163238,4.3019507 11.279549,15.0957737 16.682911,23.8468767 3.643084,5.902985 7.183654,12.551296 10.30919,19.901685 0.423823,0.949397 0.557691,2.090521 0.237869,3.244942 -0.334558,0.992567 -0.896682,1.773333 -1.496433,2.368156 -1.238817,1.303212 -2.595619,2.126572 -3.243901,3.17284 -0.234692,0.34504 -0.456766,0.703175 -0.670113,1.072681 -1.474187,2.553219 -2.50447,5.556308 -4.274513,8.280104 C 32.152726,79.961501 23.817408,88.193099 19.192695,96.587725 14.278508,105.4779 9.7353126,112.17958 7.076086,116.66285 c -1.0619753,1.82128 -1.8605926,3.20898 -2.2356061,4.2063 -0.3750135,0.99732 -0.457665,1.57663 -0.5548821,1.57097 -0.079064,-0.005 -0.2031074,-0.60378 0.014447,-1.72249 0.2581366,-1.32739 0.7773361,-2.4945 1.8148625,-4.5743 2.3124057,-4.71495 6.5928022,-11.68088 11.1963102,-20.563193 4.602618,-8.835658 12.933227,-17.38231 19.676522,-27.783117 1.540265,-2.353641 2.53282,-5.304503 4.187163,-8.167175 0.23942,-0.414291 0.491962,-0.824497 0.761471,-1.228818 1.143387,-1.61657 2.58994,-2.547451 3.536181,-3.521547 0.428519,-0.476867 0.787313,-0.905067 0.887396,-1.318912 0.156153,-0.385723 0.0586,-0.931058 -0.137726,-1.450885 C 43.18958,44.870134 39.785405,38.292993 36.303298,32.412304 30.275693,22.227853 24.34681,14.080715 20.486572,8.1422716 16.623328,2.1992037 14.648915,-1.3961527 14.868931,-1.5360718 Z"
       id="path1066"
       inkscape:connector-curvature="0"
       inkscape:path-effect="#path-effect1068;#path-effect1070"
       inkscape:original-d="M 14.868931,-1.5360718 C 19.83262,7.1815891 51.124494,47.661137 47.374898,55.16036 c -0.814969,1.629913 -4.726728,3.596852 -5.291666,5.291667 -3.681783,11.045295 -15.019364,20.748492 -21.166667,30.994032 -3.615822,6.026362 -6.924939,12.801471 -10.583333,18.898821 -1.9037829,3.17296 -6.0476341,8.95053 -6.0476341,12.09524" />
  </g>
</svg>
